<?xml version="1.0" encoding="UTF-8" standalone="no"?>
<!-- Created with Inkscape (http://www.inkscape.org/) -->

<svg
   xmlns:dc="http://purl.org/dc/elements/1.1/"
   xmlns:cc="http://creativecommons.org/ns#"
   xmlns:rdf="http://www.w3.org/1999/02/22-rdf-syntax-ns#"
   xmlns:svg="http://www.w3.org/2000/svg"
   xmlns="http://www.w3.org/2000/svg"
   xmlns:sodipodi="http://sodipodi.sourceforge.net/DTD/sodipodi-0.dtd"
   xmlns:inkscape="http://www.inkscape.org/namespaces/inkscape"
   width="210mm"
   height="297mm"
   viewBox="0 0 744.09448819 1052.3622047"
   id="svg2"
   version="1.1"
   inkscape:version="0.91 r13725"
   sodipodi:docname="atom.svg">
  <defs
     id="defs4" />
  <sodipodi:namedview
     id="base"
     pagecolor="#ffffff"
     bordercolor="#666666"
     borderopacity="1.0"
     inkscape:pageopacity="0.0"
     inkscape:pageshadow="2"
     inkscape:zoom="0.49497475"
     inkscape:cx="112.26373"
     inkscape:cy="102.46208"
     inkscape:document-units="px"
     inkscape:current-layer="layer1"
     showgrid="false"
     inkscape:window-width="1366"
     inkscape:window-height="705"
     inkscape:window-x="-4"
     inkscape:window-y="0"
     inkscape:window-maximized="1" />
  <metadata
     id="metadata7">
    <rdf:RDF>
      <cc:Work
         rdf:about="">
        <dc:format>image/svg+xml</dc:format>
        <dc:type
           rdf:resource="http://purl.org/dc/dcmitype/StillImage" />
      </cc:Work>
    </rdf:RDF>
  </metadata>
  <g
     inkscape:label="Layer 1"
     inkscape:groupmode="layer"
     id="layer1">
    <path
       style="font-style:normal;font-weight:normal;font-size:40px;line-height:125%;font-family:sans-serif;letter-spacing:0px;word-spacing:0px;fill:#000000;fill-opacity:1;stroke:none;stroke-width:1px;stroke-linecap:butt;stroke-linejoin:miter;stroke-opacity:1"
       d="m 518.73632,808.32116 0,0.0508 -326.42187,0 c -21.04948,0 -35.08312,1.8802 -42.09961,5.63867 -7.10103,3.70769 -10.65039,11.17381 -10.65039,22.39844 l 0,18.2832 c 0,7.56774 -2.28271,12.82566 -6.84766,15.77149 -4.56494,2.89504 -12.84939,4.3418 -24.85351,4.3418 l -7.86328,0 0,10.89453 7.86328,0 c 12.00412,0 20.28857,1.47409 24.85351,4.41992 4.56495,2.94583 6.84766,8.25255 6.84766,15.92187 l 0,18.20899 c 0,11.22463 3.54936,18.71613 10.65039,22.47461 7.01649,3.75847 21.05013,5.63672 42.09961,5.63672 l 327.98828,0 0,-0.0508 6.42188,0 c 21.04947,0 35.08116,-1.88019 42.09765,-5.63867 7.10103,-3.75847 10.65235,-11.24997 10.65235,-22.47461 l 0,-18.20703 c 0,-7.66932 2.28271,-12.97799 6.84765,-15.92383 4.56495,-2.94583 12.8494,-4.41797 24.85352,-4.41797 l 7.86133,0 0,-10.89453 -7.86133,0 c -12.00412,0 -20.28857,-1.4487 -24.85352,-4.34375 -4.56494,-2.94583 -6.84765,-8.20179 -6.84765,-15.76953 l 0,-18.28515 c 0,-11.22464 -3.55132,-18.69076 -10.65235,-22.39844 -7.01649,-3.75848 -21.04818,-5.63672 -42.09765,-5.63672 z m 1.56641,10.89453 7.30859,0 c 11.83505,0 19.52762,1.11679 23.07813,3.35156 3.63505,2.18398 5.45313,6.88154 5.45313,14.09375 l 0,18.89454 c 0,7.97406 1.9029,13.76498 5.70703,17.37109 3.80412,3.6061 10.39774,6.04274 19.78125,7.3125 -9.38351,1.37133 -15.97713,3.86069 -19.78125,7.4668 -3.80413,3.6061 -5.70703,9.37165 -5.70703,17.29492 l 0,18.89258 c 0,7.263 -1.81808,11.98789 -5.45313,14.17187 -3.55051,2.18398 -11.24308,3.27539 -23.07813,3.27539 l -8.875,0 0,0.0508 -327.31054,0 c -11.83505,0 -19.52761,-1.09141 -23.07813,-3.27539 -3.63505,-2.18398 -5.45117,-6.90692 -5.45117,-14.16992 l 0,-18.89453 c 0,-7.92327 -1.90291,-13.68882 -5.70703,-17.29492 -3.80412,-3.60611 -10.39775,-6.09351 -19.78125,-7.46485 9.3835,-1.26975 15.97713,-3.70835 19.78125,-7.31445 3.80412,-3.6061 5.70703,-9.39508 5.70703,-17.36914 l 0,-18.89453 c 0,-7.21221 1.81612,-11.90977 5.45117,-14.09375 3.55052,-2.23477 11.24308,-3.35352 23.07813,-3.35352 l 328.87695,0 z"
       id="flowRoot4161"
       inkscape:connector-curvature="0"
       sodipodi:nodetypes="ccscsscsccsssscsccscssssccscsscsccscssscssscsccscssscssscscc"
       inkscape:export-filename="/home/spd/workspace/personal/wedding/images/atom.png"
       inkscape:export-xdpi="17.34"
       inkscape:export-ydpi="17.34" />
    <path
       style="font-style:normal;font-weight:normal;font-size:40px;line-height:125%;font-family:sans-serif;letter-spacing:0px;word-spacing:0px;fill:#000000;fill-opacity:1;stroke:none;stroke-width:1px;stroke-linecap:butt;stroke-linejoin:miter;stroke-opacity:1"
       d="m 376.7559,706.44471 0.044,0.0254 -163.21093,282.68963 c -10.52474,18.22936 -15.91326,31.32296 -16.16658,39.27866 -0.33956,8.0035 4.35161,14.8104 14.07243,20.4227 l 15.83371,9.1416 c 6.55386,3.7839 9.96599,8.3897 10.23468,13.816 0.22471,5.4009 -2.66458,13.2988 -8.66664,23.6947 l -3.93164,6.8098 9.43494,5.4473 3.93164,-6.8098 c 6.00206,-10.3959 11.42088,-16.8334 16.25452,-19.3138 4.83363,-2.4805 10.57074,-1.804 17.21257,2.0306 l 15.76945,9.1045 c 9.72081,5.6123 17.98332,6.2843 24.78875,2.0138 6.7632,-4.1972 15.40668,-15.4115 25.93142,-33.6409 l 163.99414,-284.0462 -0.0442,-0.0255 3.21094,-5.56151 c 10.52473,-18.22938 15.91228,-31.32128 16.16557,-39.27699 0.29556,-8.02891 -4.41661,-14.8502 -14.13743,-20.46252 l -15.76775,-9.10351 c -6.64183,-3.83466 -10.09791,-8.46588 -10.36662,-13.89216 -0.26868,-5.42627 2.59863,-13.33689 8.60069,-23.73276 l 3.93067,-6.80811 -9.43494,-5.44727 -3.93067,6.80812 c -6.00206,10.39587 -11.3989,16.84606 -16.18856,19.3519 -4.83363,2.48044 -10.52678,1.82934 -17.08064,-1.95453 l -15.8354,-9.14257 c -9.72082,-5.61232 -17.96233,-6.26985 -24.72379,-1.97402 -6.76319,4.19722 -15.40564,15.4099 -25.93037,33.63928 z m 10.21814,4.09071 3.6543,-6.32942 c 5.91752,-10.24946 10.73098,-16.35302 14.4416,-18.31047 3.70891,-2.05606 8.68615,-1.28178 14.93211,2.32432 l 16.36315,9.44727 c 6.90574,3.98703 12.87227,5.23453 17.89732,3.74312 5.02504,-1.49142 10.43204,-5.98334 16.22344,-13.47482 -3.50415,8.81202 -4.64511,15.76695 -3.42419,20.86447 1.22091,5.09752 5.26257,9.62825 12.12433,13.58989 l 16.36145,9.44629 c 6.28994,3.6315 9.47278,7.56845 9.54663,11.80848 0.11613,4.16683 -2.78496,11.37449 -8.70249,21.62395 l -4.4375,7.68597 0.044,0.0254 -163.65527,283.45923 c -5.91752,10.2495 -10.70899,16.3657 -14.37563,18.3486 -3.70891,2.056 -8.70715,1.2674 -14.9971,-2.3641 l -16.36314,-9.4473 c -6.86175,-3.9616 -12.80632,-5.1964 -17.83136,-3.705 -5.02504,1.4914 -10.476,5.9579 -16.35537,13.3986 3.59211,-8.7612 4.77704,-15.6908 3.55613,-20.7883 -1.22092,-5.0975 -5.28287,-9.64 -12.18861,-13.627 l -16.36314,-9.4473 c -6.24596,-3.6061 -9.4061,-7.5276 -9.47996,-11.7677 -0.16011,-4.1922 2.71731,-11.4135 8.63483,-21.66299 L 387.01804,710.56082 Z"
       id="flowRoot4161-3"
       inkscape:connector-curvature="0"
       sodipodi:nodetypes="ccscsscsccsssscsccscssssccscsscsccscssscssscsccscssscssscscc"
       inkscape:export-filename="/home/spd/workspace/personal/wedding/images/atom.png"
       inkscape:export-xdpi="17.34"
       inkscape:export-ydpi="17.34" />
    <path
       style="font-style:normal;font-weight:normal;font-size:40px;line-height:125%;font-family:sans-serif;letter-spacing:0px;word-spacing:0px;fill:#000000;fill-opacity:1;stroke:none;stroke-width:1px;stroke-linecap:butt;stroke-linejoin:miter;stroke-opacity:1"
       d="m 217.53813,778.46516 0.044,-0.0254 163.21093,282.68964 c 10.52474,18.2294 19.16986,29.4428 25.93304,33.64 6.76147,4.2958 15.002,3.6366 24.72281,-1.9757 l 15.83372,-9.1416 c 6.55385,-3.7839 12.2487,-4.436 17.08234,-1.9555 4.78965,2.5058 10.1848,8.957 16.18686,19.3528 l 3.93164,6.8098 9.43494,-5.4472 -3.93164,-6.8098 c -6.00206,-10.3959 -8.86768,-18.3075 -8.59899,-23.7337 0.26869,-5.4263 3.72309,-10.0566 10.36491,-13.8912 l 15.76945,-9.1045 c 9.72082,-5.6123 14.43397,-12.4319 14.13836,-20.4608 -0.25328,-7.9557 -5.64345,-21.0484 -16.16819,-39.27776 l -163.99414,-284.04618 -0.0442,0.0255 -3.21094,-5.56151 c -10.52473,-18.22938 -19.16888,-29.44108 -25.93208,-33.63829 -6.80546,-4.27042 -15.06895,-3.60021 -24.78977,2.01211 l -15.76775,9.10352 c -6.64183,3.83466 -12.38063,4.51211 -17.21427,2.03167 -4.83364,-2.48044 -10.25077,-8.91892 -16.25283,-19.31479 l -3.93067,-6.80811 -9.43494,5.44726 3.93067,6.80812 c 6.00206,10.39587 8.88967,18.29476 8.66496,23.69565 -0.2687,5.42627 -3.67914,10.03113 -10.23299,13.815 l -15.83541,9.14258 c -9.72082,5.61232 -14.41101,12.42091 -14.07144,20.42442 0.25331,7.9557 5.64255,21.04662 16.16728,39.276 z m 8.65174,-6.80382 -3.6543,-6.32942 c -5.91752,-10.24946 -8.79664,-17.46981 -8.63653,-21.66203 0.0739,-4.24004 3.23303,-8.16332 9.47898,-11.76943 l 16.36316,-9.44727 c 6.90573,-3.98703 10.96937,-8.53045 12.19029,-13.62797 1.22091,-5.09752 0.0343,-12.02608 -3.55782,-20.78732 5.87936,7.44069 11.33202,11.90626 16.35707,13.39767 5.02503,1.49142 10.9696,0.2566 17.83135,-3.70503 l 16.36146,-9.44629 c 6.28994,-3.6315 11.29085,-4.41944 14.99976,-2.36339 3.66664,1.98285 8.45811,8.0991 14.37564,18.34856 l 4.4375,7.68597 0.044,-0.0254 163.65527,283.45924 c 5.91752,10.24947 8.81862,17.45707 8.70249,21.62397 -0.0738,4.24 -3.25598,8.1743 -9.54592,11.8058 l -16.36315,9.4473 c -6.86175,3.9616 -10.90341,8.4923 -12.12432,13.5898 -1.22092,5.0976 -0.0783,12.0515 3.42588,20.8635 -5.79139,-7.4914 -11.2001,-11.9824 -16.22513,-13.4738 -5.02503,-1.4914 -10.98989,-0.2449 -17.89563,3.7421 l -16.36314,9.4473 c -6.24596,3.6061 -11.22223,4.3821 -14.93113,2.326 -3.71063,-1.9574 -8.52578,-8.06 -14.4433,-18.3095 L 226.23386,771.63594 Z"
       id="flowRoot4161-7"
       inkscape:connector-curvature="0"
       sodipodi:nodetypes="ccscsscsccsssscsccscssssccscsscsccscssscssscsccscssscssscscc"
       inkscape:export-filename="/home/spd/workspace/personal/wedding/images/atom.png"
       inkscape:export-xdpi="17.34"
       inkscape:export-ydpi="17.34" />
    <circle
       style="fill:none;fill-opacity:1;stroke:#000000;stroke-width:9.627;stroke-linecap:round;stroke-linejoin:bevel;stroke-miterlimit:4;stroke-dasharray:none;stroke-opacity:1"
       id="path4312"
       cx="359.28571"
       cy="880.21942"
       r="44.572342"
       inkscape:export-filename="/home/spd/workspace/personal/wedding/images/atom.png"
       inkscape:export-xdpi="17.34"
       inkscape:export-ydpi="17.34" />
  </g>
</svg>
