<?xml version="1.0" encoding="UTF-8" standalone="no"?>
<!-- Created with Inkscape (http://www.inkscape.org/) -->

<svg
   xmlns:dc="http://purl.org/dc/elements/1.1/"
   xmlns:cc="http://creativecommons.org/ns#"
   xmlns:rdf="http://www.w3.org/1999/02/22-rdf-syntax-ns#"
   xmlns:svg="http://www.w3.org/2000/svg"
   xmlns="http://www.w3.org/2000/svg"
   xmlns:sodipodi="http://sodipodi.sourceforge.net/DTD/sodipodi-0.dtd"
   xmlns:inkscape="http://www.inkscape.org/namespaces/inkscape"
   width="210mm"
   height="297mm"
   viewBox="0 0 744.09448819 1052.3622047"
   id="svg2"
   version="1.1"
   inkscape:version="0.91 r13725"
   sodipodi:docname="beaker.svg">
  <defs
     id="defs4" />
  <sodipodi:namedview
     id="base"
     pagecolor="#ffffff"
     bordercolor="#666666"
     borderopacity="1.0"
     inkscape:pageopacity="0.0"
     inkscape:pageshadow="2"
     inkscape:zoom="0.7"
     inkscape:cx="123.40474"
     inkscape:cy="391.15749"
     inkscape:document-units="px"
     inkscape:current-layer="layer1"
     showgrid="false"
     inkscape:object-paths="true"
     inkscape:snap-intersection-paths="true"
     inkscape:object-nodes="true"
     inkscape:snap-smooth-nodes="true"
     inkscape:window-width="1366"
     inkscape:window-height="705"
     inkscape:window-x="-4"
     inkscape:window-y="0"
     inkscape:window-maximized="1" />
  <metadata
     id="metadata7">
    <rdf:RDF>
      <cc:Work
         rdf:about="">
        <dc:format>image/svg+xml</dc:format>
        <dc:type
           rdf:resource="http://purl.org/dc/dcmitype/StillImage" />
        <dc:title></dc:title>
      </cc:Work>
    </rdf:RDF>
  </metadata>
  <g
     inkscape:label="Layer 1"
     inkscape:groupmode="layer"
     id="layer1">
    <path
       style="fill:none;fill-rule:evenodd;stroke:#000000;stroke-width:3;stroke-linecap:butt;stroke-linejoin:bevel;stroke-opacity:1;stroke-miterlimit:4;stroke-dasharray:none"
       d="m 245.54688,580.54785 -49.83204,50.00098 6.51367,-3.26074 6.51367,-3.26074 6.51368,-3.26075 c 0,0 3.10826,-1.94275 4.51367,-1.26074 1.92595,0.93462 2.20902,1.02233 2.4703,5.92814 0.26128,4.90581 0.57482,11.6951 0.78384,19.22902 0.20903,7.53393 0.31354,15.81249 0.15677,23.69683 -0.15677,7.88435 -0.57482,15.37449 -1.41091,21.33156 -1.09625,7.81065 -6.51367,22.74741 -6.51367,22.74741 l -6.51368,22.74741 -6.51367,22.74741 c 0,0 -5.29037,10.47117 -0.51367,16.74741 5.03862,6.62038 18.95801,5.77051 18.95801,5.77051 l 24.95801,-0.22949 24.95801,-0.2295 c 0,0 13.98052,0.43698 18.95801,-6.22949 4.71887,-6.32009 -0.51416,-16.7479 -0.51416,-16.7479 l -6.51417,-22.7479 -6.51416,-22.7479 c 0,0 -5.41783,-14.93706 -6.51416,-22.7479 -0.83614,-5.95707 -1.25421,-13.4472 -1.41098,-21.33154 -0.15678,-7.88435 -0.0523,-16.16291 0.15677,-23.69683 0.20904,-7.53393 0.52259,-14.32322 0.78388,-19.22903 0.2613,-4.90581 0.54438,-4.9935 2.47033,-5.92814 1.40554,-0.68209 4.51416,1.26074 4.51416,1.26074 l 6.51417,3.26074 6.51416,3.26075 6.51416,3.26074 z"
       id="path4150"
       inkscape:connector-curvature="0"
       sodipodi:nodetypes="cccccasssscccscccscccssssaccccc"
       inkscape:export-filename="/home/spd/workspace/personal/wedding/images/beaker.png"
       inkscape:export-xdpi="17.34"
       inkscape:export-ydpi="17.34" />
    <path
       style="fill:#000000;fill-opacity:1;fill-rule:evenodd;stroke:#000000;stroke-width:1px;stroke-linecap:butt;stroke-linejoin:bevel;stroke-opacity:1"
       d="m 215.25586,712.43882 -6.51368,22.74741 -6.51367,22.74741 c 0,0 -5.29037,10.47117 -0.51367,16.74741 5.03862,6.62038 18.95801,5.77051 18.95801,5.77051 l 24.95801,-0.22949 24.95801,-0.2295 c 0,0 13.98052,0.43698 18.95801,-6.22949 4.71887,-6.32009 -0.51416,-16.7479 -0.51416,-16.7479 l -6.51417,-22.7479 -6.51416,-22.7479 z"
       id="path4150-2"
       inkscape:connector-curvature="0"
       sodipodi:nodetypes="cccscccscccc"
       inkscape:export-filename="/home/spd/workspace/personal/wedding/images/beaker.png"
       inkscape:export-xdpi="17.34"
       inkscape:export-ydpi="17.34" />
    <circle
       style="fill:#ffffff;fill-opacity:1;stroke:#000000;stroke-width:0.05841035;stroke-linecap:round;stroke-linejoin:bevel;stroke-miterlimit:4;stroke-dasharray:none;stroke-opacity:1"
       id="path4185"
       cx="233.03572"
       cy="730.04077"
       r="4.4850802"
       inkscape:export-filename="/home/spd/workspace/personal/wedding/images/beaker.png"
       inkscape:export-xdpi="17.34"
       inkscape:export-ydpi="17.34" />
    <circle
       style="fill:#ffffff;fill-opacity:1;stroke:#000000;stroke-width:0.05841035;stroke-linecap:round;stroke-linejoin:bevel;stroke-miterlimit:4;stroke-dasharray:none;stroke-opacity:1"
       id="path4185-2"
       cx="226.07143"
       cy="758.79077"
       r="4.4850802"
       inkscape:export-filename="/home/spd/workspace/personal/wedding/images/beaker.png"
       inkscape:export-xdpi="17.34"
       inkscape:export-ydpi="17.34" />
    <circle
       style="fill:#ffffff;fill-opacity:1;stroke:#000000;stroke-width:0.05841035;stroke-linecap:round;stroke-linejoin:bevel;stroke-miterlimit:4;stroke-dasharray:none;stroke-opacity:1"
       id="path4185-9"
       cx="270"
       cy="740.21936"
       r="4.4850802"
       inkscape:export-filename="/home/spd/workspace/personal/wedding/images/beaker.png"
       inkscape:export-xdpi="17.34"
       inkscape:export-ydpi="17.34" />
  </g>
</svg>
